<svg xmlns="http://www.w3.org/2000/svg" xmlns:xlink="http://www.w3.org/1999/xlink" width="246" zoomAndPan="magnify" viewBox="0 0 184.5 49.499998" height="66" preserveAspectRatio="xMidYMid meet" version="1.2"><defs><filter x="0%" y="0%" width="100%" filterUnits="objectBoundingBox" id="97fbb7b179" height="100%"><feColorMatrix values="0 0 0 0 1 0 0 0 0 1 0 0 0 0 1 0 0 0 1 0" type="matrix" in="SourceGraphic"/></filter><clipPath id="5c4ea393ce"><path d="M 0.585938 0.269531 L 36.671875 0.269531 L 36.671875 8.675781 L 0.585938 8.675781 Z M 0.585938 0.269531 "/></clipPath><clipPath id="57b9d200da"><rect x="0" width="37" y="0" height="9"/></clipPath></defs><g id="fecc165473"><g style="fill:#ffffff;fill-opacity:1;"><g transform="translate(18.966516, 35.364741)"><path style="stroke:none" d="M 10.96875 0.300781 L 6.066406 0.300781 L 6.066406 -18.398438 L 6.367188 -18.398438 L 6.367188 -18.097656 L 0.339844 -18.097656 L 0.339844 -23.265625 L 16.996094 -23.265625 L 16.996094 -18.097656 L 10.96875 -18.097656 L 10.96875 -18.398438 L 11.269531 -18.398438 L 11.269531 0.300781 Z M 10.96875 -0.300781 L 10.96875 0 L 10.667969 0 L 10.667969 -18.699219 L 16.691406 -18.699219 L 16.691406 -18.398438 L 16.390625 -18.398438 L 16.390625 -22.964844 L 16.691406 -22.964844 L 16.691406 -22.664062 L 0.644531 -22.664062 L 0.644531 -22.964844 L 0.945312 -22.964844 L 0.945312 -18.398438 L 0.644531 -18.398438 L 0.644531 -18.699219 L 6.671875 -18.699219 L 6.671875 0 L 6.367188 0 L 6.367188 -0.300781 Z M 10.96875 -0.300781 "/></g></g><g style="fill:#ffffff;fill-opacity:1;"><g transform="translate(35.819402, 35.364741)"><path style="stroke:none" d="M 13.636719 0.625 C 11.621094 0.625 9.847656 0.28125 8.320312 -0.398438 C 6.789062 -1.082031 5.515625 -2.003906 4.5 -3.164062 C 3.488281 -4.316406 2.730469 -5.621094 2.222656 -7.074219 C 1.71875 -8.519531 1.46875 -10.007812 1.46875 -11.53125 C 1.46875 -13.054688 1.71875 -14.539062 2.222656 -15.988281 C 2.730469 -17.441406 3.488281 -18.742188 4.5 -19.898438 C 5.515625 -21.058594 6.789062 -21.980469 8.320312 -22.660156 C 9.847656 -23.34375 11.621094 -23.683594 13.636719 -23.683594 C 15.652344 -23.683594 17.425781 -23.34375 18.953125 -22.660156 C 20.484375 -21.980469 21.757812 -21.058594 22.773438 -19.898438 C 23.785156 -18.742188 24.542969 -17.441406 25.050781 -15.988281 C 25.554688 -14.539062 25.808594 -13.054688 25.808594 -11.53125 C 25.808594 -10.007812 25.554688 -8.519531 25.050781 -7.074219 C 24.542969 -5.621094 23.785156 -4.316406 22.773438 -3.164062 C 21.757812 -2.003906 20.484375 -1.082031 18.953125 -0.398438 C 17.425781 0.28125 15.652344 0.625 13.636719 0.625 Z M 13.636719 0.0195312 C 15.566406 0.0195312 17.257812 -0.304688 18.710938 -0.949219 C 20.160156 -1.597656 21.363281 -2.46875 22.320312 -3.558594 C 23.28125 -4.65625 24 -5.894531 24.480469 -7.273438 C 24.964844 -8.65625 25.203125 -10.074219 25.203125 -11.53125 C 25.203125 -12.988281 24.964844 -14.40625 24.480469 -15.789062 C 24 -17.167969 23.28125 -18.40625 22.320312 -19.5 C 21.363281 -20.59375 20.160156 -21.464844 18.710938 -22.109375 C 17.257812 -22.757812 15.566406 -23.082031 13.636719 -23.082031 C 11.707031 -23.082031 10.015625 -22.757812 8.566406 -22.109375 C 7.117188 -21.464844 5.914062 -20.59375 4.953125 -19.5 C 3.996094 -18.40625 3.273438 -17.167969 2.792969 -15.789062 C 2.3125 -14.40625 2.070312 -12.988281 2.070312 -11.53125 C 2.070312 -10.074219 2.3125 -8.65625 2.792969 -7.273438 C 3.273438 -5.894531 3.996094 -4.65625 4.953125 -3.558594 C 5.914062 -2.46875 7.117188 -1.597656 8.566406 -0.949219 C 10.015625 -0.304688 11.707031 0.0195312 13.636719 0.0195312 Z M 13.636719 -4.738281 C 14.894531 -4.738281 15.972656 -4.984375 16.871094 -5.476562 C 17.769531 -5.964844 18.484375 -6.613281 19.015625 -7.417969 C 19.550781 -8.230469 19.910156 -9.125 20.09375 -10.09375 C 20.28125 -11.0625 20.28125 -12.03125 20.09375 -13 C 19.910156 -13.96875 19.550781 -14.859375 19.015625 -15.675781 C 18.484375 -16.480469 17.769531 -17.128906 16.871094 -17.617188 C 15.972656 -18.109375 14.894531 -18.351562 13.636719 -18.351562 C 12.378906 -18.351562 11.304688 -18.109375 10.40625 -17.617188 C 9.503906 -17.128906 8.789062 -16.480469 8.261719 -15.675781 C 7.726562 -14.859375 7.363281 -13.96875 7.179688 -13 C 6.992188 -12.03125 6.992188 -11.0625 7.179688 -10.09375 C 7.363281 -9.125 7.726562 -8.230469 8.261719 -7.417969 C 8.789062 -6.613281 9.503906 -5.964844 10.40625 -5.476562 C 11.304688 -4.984375 12.378906 -4.738281 13.636719 -4.738281 Z M 13.636719 -4.136719 C 12.277344 -4.136719 11.105469 -4.40625 10.117188 -4.945312 C 9.128906 -5.484375 8.34375 -6.199219 7.757812 -7.085938 C 7.175781 -7.96875 6.789062 -8.929688 6.585938 -9.976562 C 6.386719 -11.023438 6.386719 -12.070312 6.585938 -13.113281 C 6.789062 -14.164062 7.175781 -15.125 7.757812 -16.007812 C 8.34375 -16.894531 9.128906 -17.609375 10.117188 -18.148438 C 11.105469 -18.6875 12.277344 -18.957031 13.636719 -18.957031 C 14.996094 -18.957031 16.171875 -18.6875 17.160156 -18.148438 C 18.148438 -17.609375 18.933594 -16.894531 19.519531 -16.007812 C 20.097656 -15.125 20.488281 -14.164062 20.6875 -13.113281 C 20.886719 -12.070312 20.886719 -11.023438 20.6875 -9.976562 C 20.488281 -8.929688 20.097656 -7.96875 19.519531 -7.085938 C 18.933594 -6.199219 18.148438 -5.484375 17.160156 -4.945312 C 16.171875 -4.40625 14.996094 -4.136719 13.636719 -4.136719 Z M 13.636719 -4.136719 "/></g></g><g style="fill:#ffffff;fill-opacity:1;"><g transform="translate(63.060682, 35.364741)"><path style="stroke:none" d="M 13.757812 0.140625 L 9.125 -8.640625 L 9.390625 -8.78125 L 9.390625 -8.480469 L 7.171875 -8.480469 L 7.171875 -8.78125 L 7.472656 -8.78125 L 7.472656 0.300781 L 2.273438 0.300781 L 2.273438 -23.296875 L 11.644531 -23.296875 C 13.070312 -23.296875 14.285156 -23 15.289062 -22.402344 C 16.285156 -21.808594 17.066406 -21.035156 17.628906 -20.078125 C 18.1875 -19.132812 18.53125 -18.105469 18.664062 -17.003906 C 18.796875 -15.902344 18.714844 -14.820312 18.414062 -13.765625 C 18.113281 -12.703125 17.597656 -11.761719 16.871094 -10.945312 C 16.132812 -10.117188 15.167969 -9.535156 13.976562 -9.199219 L 13.894531 -9.488281 L 14.15625 -9.636719 L 19.75 0.300781 L 13.839844 0.300781 Z M 14.289062 -0.140625 L 14.023438 0 L 14.023438 -0.300781 L 19.234375 -0.300781 L 19.234375 0 L 18.972656 0.148438 L 13.445312 -9.675781 L 13.8125 -9.777344 C 14.894531 -10.085938 15.761719 -10.605469 16.417969 -11.34375 C 17.085938 -12.09375 17.558594 -12.953125 17.835938 -13.929688 C 18.113281 -14.910156 18.191406 -15.910156 18.066406 -16.929688 C 17.941406 -17.949219 17.625 -18.898438 17.109375 -19.773438 C 16.597656 -20.640625 15.890625 -21.34375 14.980469 -21.886719 C 14.070312 -22.425781 12.960938 -22.695312 11.644531 -22.695312 L 2.574219 -22.695312 L 2.574219 -22.996094 L 2.875 -22.996094 L 2.875 0 L 2.574219 0 L 2.574219 -0.300781 L 7.171875 -0.300781 L 7.171875 0 L 6.871094 0 L 6.871094 -9.082031 L 9.574219 -9.082031 Z M 7.171875 -13.554688 L 11.226562 -13.554688 C 11.769531 -13.554688 12.199219 -13.699219 12.515625 -13.988281 C 12.847656 -14.289062 13.070312 -14.671875 13.183594 -15.125 C 13.300781 -15.589844 13.300781 -16.058594 13.183594 -16.523438 C 13.070312 -16.980469 12.847656 -17.359375 12.515625 -17.660156 C 12.199219 -17.949219 11.769531 -18.097656 11.226562 -18.097656 L 7.171875 -18.097656 L 7.171875 -18.398438 L 7.472656 -18.398438 L 7.472656 -13.25 L 7.171875 -13.25 Z M 6.871094 -12.949219 L 6.871094 -18.699219 L 11.226562 -18.699219 C 11.925781 -18.699219 12.492188 -18.5 12.925781 -18.105469 C 13.34375 -17.722656 13.625 -17.242188 13.769531 -16.667969 C 13.910156 -16.105469 13.910156 -15.542969 13.769531 -14.980469 C 13.625 -14.40625 13.34375 -13.925781 12.925781 -13.542969 C 12.492188 -13.148438 11.925781 -12.949219 11.226562 -12.949219 Z M 6.871094 -12.949219 "/></g></g><g style="fill:#ffffff;fill-opacity:1;"><g transform="translate(82.776035, 35.364741)"><path style="stroke:none" d="M 19.179688 -0.921875 C 18.363281 -0.503906 17.476562 -0.183594 16.519531 0.0351562 C 15.5625 0.257812 14.507812 0.367188 13.347656 0.367188 C 11.375 0.367188 9.644531 0.03125 8.15625 -0.640625 C 6.671875 -1.3125 5.429688 -2.21875 4.4375 -3.355469 C 3.445312 -4.488281 2.703125 -5.761719 2.207031 -7.167969 C 1.714844 -8.574219 1.46875 -10.027344 1.46875 -11.53125 C 1.46875 -13.035156 1.714844 -14.488281 2.207031 -15.890625 C 2.703125 -17.300781 3.445312 -18.574219 4.4375 -19.707031 C 5.429688 -20.84375 6.671875 -21.746094 8.15625 -22.417969 C 9.644531 -23.089844 11.375 -23.425781 13.347656 -23.425781 C 15.300781 -23.425781 17.019531 -23.097656 18.503906 -22.4375 C 19.992188 -21.773438 21.230469 -20.882812 22.226562 -19.753906 C 23.214844 -18.632812 23.964844 -17.378906 24.46875 -15.992188 C 24.976562 -14.609375 25.238281 -13.171875 25.261719 -11.679688 C 25.28125 -10.1875 25.058594 -8.738281 24.585938 -7.332031 C 24.113281 -5.925781 23.402344 -4.660156 22.457031 -3.535156 L 22.226562 -3.730469 L 22.460938 -3.917969 L 25.867188 0.429688 L 20.027344 0.429688 L 18.8125 -0.996094 L 19.039062 -1.191406 Z M 19.117188 -1.566406 L 20.394531 -0.0664062 L 20.167969 0.128906 L 20.167969 -0.171875 L 25.25 -0.171875 L 25.25 0.128906 L 25.011719 0.316406 L 21.835938 -3.738281 L 21.996094 -3.925781 C 22.890625 -4.988281 23.566406 -6.191406 24.015625 -7.527344 C 24.464844 -8.867188 24.679688 -10.246094 24.65625 -11.671875 C 24.636719 -13.09375 24.386719 -14.464844 23.902344 -15.785156 C 23.421875 -17.101562 22.714844 -18.289062 21.773438 -19.355469 C 20.839844 -20.417969 19.667969 -21.261719 18.257812 -21.886719 C 16.851562 -22.511719 15.214844 -22.824219 13.347656 -22.824219 C 11.460938 -22.824219 9.8125 -22.507812 8.40625 -21.871094 C 7 -21.234375 5.828125 -20.378906 4.890625 -19.308594 C 3.953125 -18.234375 3.246094 -17.027344 2.777344 -15.691406 C 2.304688 -14.351562 2.070312 -12.964844 2.070312 -11.53125 C 2.070312 -10.097656 2.304688 -8.710938 2.777344 -7.367188 C 3.246094 -6.03125 3.953125 -4.828125 4.890625 -3.753906 C 5.828125 -2.679688 7 -1.828125 8.40625 -1.191406 C 9.8125 -0.554688 11.460938 -0.238281 13.347656 -0.238281 C 14.460938 -0.238281 15.472656 -0.34375 16.382812 -0.550781 C 17.292969 -0.761719 18.132812 -1.0625 18.902344 -1.457031 Z M 12.09375 -10.046875 L 17.675781 -10.046875 L 19.375 -7.871094 L 19.136719 -7.6875 L 18.875 -7.839844 C 19.328125 -8.617188 19.617188 -9.476562 19.738281 -10.414062 C 19.863281 -11.351562 19.820312 -12.277344 19.617188 -13.183594 C 19.410156 -14.089844 19.039062 -14.921875 18.503906 -15.683594 C 17.976562 -16.4375 17.28125 -17.039062 16.425781 -17.488281 C 15.566406 -17.9375 14.542969 -18.160156 13.347656 -18.160156 C 12.113281 -18.160156 11.0625 -17.921875 10.195312 -17.441406 C 9.328125 -16.960938 8.636719 -16.328125 8.117188 -15.546875 C 7.589844 -14.753906 7.234375 -13.882812 7.050781 -12.9375 C 6.863281 -11.988281 6.863281 -11.039062 7.050781 -10.09375 C 7.234375 -9.144531 7.589844 -8.277344 8.117188 -7.484375 C 8.636719 -6.699219 9.328125 -6.066406 10.195312 -5.585938 C 11.0625 -5.109375 12.113281 -4.867188 13.347656 -4.867188 C 14.273438 -4.867188 15.105469 -5.011719 15.84375 -5.296875 L 15.953125 -5.015625 L 15.71875 -4.828125 L 11.457031 -10.046875 Z M 12.09375 -9.445312 L 12.09375 -9.746094 L 12.328125 -9.9375 L 16.449219 -4.886719 L 16.0625 -4.738281 C 15.253906 -4.421875 14.351562 -4.265625 13.347656 -4.265625 C 12.007812 -4.265625 10.863281 -4.53125 9.90625 -5.058594 C 8.949219 -5.585938 8.1875 -6.285156 7.613281 -7.152344 C 7.042969 -8.007812 6.660156 -8.953125 6.457031 -9.976562 C 6.257812 -11.003906 6.257812 -12.027344 6.457031 -13.050781 C 6.660156 -14.078125 7.042969 -15.019531 7.613281 -15.878906 C 8.1875 -16.746094 8.949219 -17.441406 9.90625 -17.96875 C 10.863281 -18.5 12.007812 -18.761719 13.347656 -18.761719 C 14.640625 -18.761719 15.761719 -18.515625 16.703125 -18.023438 C 17.648438 -17.527344 18.414062 -16.863281 19 -16.03125 C 19.578125 -15.203125 19.980469 -14.300781 20.203125 -13.316406 C 20.425781 -12.339844 20.46875 -11.34375 20.335938 -10.332031 C 20.203125 -9.316406 19.890625 -8.386719 19.398438 -7.535156 L 19.175781 -7.148438 L 17.292969 -9.558594 L 17.527344 -9.746094 L 17.527344 -9.445312 Z M 12.09375 -9.445312 "/></g></g><g style="fill:#ffffff;fill-opacity:1;"><g transform="translate(109.760023, 35.364741)"><path style="stroke:none" d="M 19.375 -8.007812 C 19.375 -6.394531 19.0625 -5.003906 18.4375 -3.84375 C 17.8125 -2.6875 16.988281 -1.761719 15.960938 -1.070312 C 14.941406 -0.382812 13.820312 0.078125 12.601562 0.3125 C 11.382812 0.542969 10.160156 0.542969 8.933594 0.3125 C 7.703125 0.078125 6.578125 -0.378906 5.554688 -1.070312 C 4.527344 -1.761719 3.703125 -2.6875 3.078125 -3.84375 C 2.457031 -5.003906 2.144531 -6.394531 2.144531 -8.007812 L 2.144531 -23.296875 L 7.34375 -23.296875 L 7.34375 -8.039062 C 7.34375 -7.152344 7.574219 -6.445312 8.027344 -5.921875 C 8.492188 -5.390625 9.0625 -5.035156 9.742188 -4.859375 C 10.429688 -4.679688 11.121094 -4.679688 11.808594 -4.859375 C 12.488281 -5.035156 13.058594 -5.390625 13.523438 -5.921875 C 13.976562 -6.445312 14.203125 -7.152344 14.203125 -8.039062 L 14.203125 -23.296875 L 19.375 -23.296875 Z M 18.773438 -8.007812 L 18.773438 -22.996094 L 19.074219 -22.996094 L 19.074219 -22.695312 L 14.507812 -22.695312 L 14.507812 -22.996094 L 14.808594 -22.996094 L 14.808594 -8.039062 C 14.808594 -7 14.53125 -6.164062 13.976562 -5.527344 C 13.433594 -4.902344 12.761719 -4.484375 11.960938 -4.277344 C 11.171875 -4.070312 10.378906 -4.070312 9.589844 -4.277344 C 8.789062 -4.484375 8.117188 -4.902344 7.570312 -5.527344 C 7.019531 -6.164062 6.742188 -7 6.742188 -8.039062 L 6.742188 -22.996094 L 7.042969 -22.996094 L 7.042969 -22.695312 L 2.445312 -22.695312 L 2.445312 -22.996094 L 2.746094 -22.996094 L 2.746094 -8.007812 C 2.746094 -6.496094 3.035156 -5.203125 3.609375 -4.132812 C 4.1875 -3.058594 4.949219 -2.207031 5.894531 -1.570312 C 6.847656 -0.925781 7.894531 -0.496094 9.046875 -0.28125 C 10.199219 -0.0625 11.34375 -0.0625 12.488281 -0.28125 C 13.625 -0.496094 14.671875 -0.925781 15.625 -1.570312 C 16.570312 -2.207031 17.332031 -3.058594 17.90625 -4.132812 C 18.484375 -5.203125 18.773438 -6.496094 18.773438 -8.007812 Z M 18.773438 -8.007812 "/></g></g><g style="fill:#ffffff;fill-opacity:1;"><g transform="translate(131.340774, 35.364741)"><path style="stroke:none" d="M 14.472656 0.300781 L 2.273438 0.300781 L 2.273438 -23.296875 L 14.390625 -23.296875 L 14.390625 -18.097656 L 7.171875 -18.097656 L 7.171875 -18.398438 L 7.472656 -18.398438 L 7.472656 -13.796875 L 7.171875 -13.796875 L 7.171875 -14.101562 L 13.519531 -14.101562 L 13.519531 -8.898438 L 7.171875 -8.898438 L 7.171875 -9.199219 L 7.472656 -9.199219 L 7.472656 -4.597656 L 7.171875 -4.597656 L 7.171875 -4.902344 L 14.773438 -4.902344 L 14.773438 0.300781 Z M 14.472656 -0.300781 L 14.472656 0 L 14.171875 0 L 14.171875 -4.597656 L 14.472656 -4.597656 L 14.472656 -4.296875 L 6.871094 -4.296875 L 6.871094 -9.5 L 13.21875 -9.5 L 13.21875 -9.199219 L 12.917969 -9.199219 L 12.917969 -13.796875 L 13.21875 -13.796875 L 13.21875 -13.496094 L 6.871094 -13.496094 L 6.871094 -18.699219 L 14.085938 -18.699219 L 14.085938 -18.398438 L 13.785156 -18.398438 L 13.785156 -22.996094 L 14.085938 -22.996094 L 14.085938 -22.695312 L 2.574219 -22.695312 L 2.574219 -22.996094 L 2.875 -22.996094 L 2.875 0 L 2.574219 0 L 2.574219 -0.300781 Z M 14.472656 -0.300781 "/></g></g><g style="fill:#ffffff;fill-opacity:1;"><g transform="translate(147.550467, 35.364741)"><path style="stroke:none" d="M 2.574219 -23.296875 L 7.472656 -23.296875 L 7.472656 -4.597656 L 7.171875 -4.597656 L 7.171875 -4.902344 L 14.773438 -4.902344 L 14.773438 0.300781 L 2.273438 0.300781 L 2.273438 -23.296875 Z M 2.574219 -22.695312 L 2.574219 -22.996094 L 2.875 -22.996094 L 2.875 0 L 2.574219 0 L 2.574219 -0.300781 L 14.472656 -0.300781 L 14.472656 0 L 14.171875 0 L 14.171875 -4.597656 L 14.472656 -4.597656 L 14.472656 -4.296875 L 6.871094 -4.296875 L 6.871094 -22.996094 L 7.171875 -22.996094 L 7.171875 -22.695312 Z M 2.574219 -22.695312 "/></g></g><g style="fill:#ffffff;fill-opacity:1;"><g transform="translate(160.897589, 35.364741)"><path style="stroke:none" d="M 7.898438 0 L 7.898438 -10.355469 L 8.203125 -10.355469 L 7.945312 -10.195312 L -0.355469 -23.296875 L 5.960938 -23.296875 L 10.746094 -15.238281 L 10.484375 -15.085938 L 10.226562 -15.238281 L 15.007812 -23.296875 L 21.359375 -23.296875 L 13.023438 -10.195312 L 12.769531 -10.355469 L 13.070312 -10.355469 L 13.070312 0.300781 L 7.898438 0.300781 Z M 8.503906 0 L 8.203125 0 L 8.203125 -0.300781 L 12.769531 -0.300781 L 12.769531 0 L 12.46875 0 L 12.46875 -10.445312 L 20.554688 -23.160156 L 20.808594 -22.996094 L 20.808594 -22.695312 L 15.179688 -22.695312 L 15.179688 -22.996094 L 15.441406 -22.84375 L 10.484375 -14.492188 L 5.53125 -22.84375 L 5.789062 -22.996094 L 5.789062 -22.695312 L 0.191406 -22.695312 L 0.191406 -22.996094 L 0.449219 -23.160156 L 8.503906 -10.445312 Z M 8.503906 0 "/></g></g><g style="fill:#000000;fill-opacity:1;"><g transform="translate(18.966516, 35.364741)"><path style="stroke:none" d="M 10.96875 0 L 6.359375 0 L 6.359375 -18.390625 L 0.640625 -18.390625 L 0.640625 -22.953125 L 16.6875 -22.953125 L 16.6875 -18.390625 L 10.96875 -18.390625 Z M 10.96875 0 "/></g></g><g style="fill:#000000;fill-opacity:1;"><g transform="translate(35.819402, 35.364741)"><path style="stroke:none" d="M 13.640625 0.328125 C 11.660156 0.328125 9.925781 -0.00390625 8.4375 -0.671875 C 6.945312 -1.335938 5.707031 -2.234375 4.71875 -3.359375 C 3.738281 -4.484375 3 -5.753906 2.5 -7.171875 C 2.007812 -8.585938 1.765625 -10.039062 1.765625 -11.53125 C 1.765625 -13.019531 2.007812 -14.46875 2.5 -15.875 C 3 -17.289062 3.738281 -18.5625 4.71875 -19.6875 C 5.707031 -20.820312 6.945312 -21.71875 8.4375 -22.375 C 9.925781 -23.039062 11.660156 -23.375 13.640625 -23.375 C 15.609375 -23.375 17.335938 -23.039062 18.828125 -22.375 C 20.316406 -21.71875 21.550781 -20.820312 22.53125 -19.6875 C 23.519531 -18.5625 24.257812 -17.289062 24.75 -15.875 C 25.25 -14.46875 25.5 -13.019531 25.5 -11.53125 C 25.5 -10.039062 25.25 -8.585938 24.75 -7.171875 C 24.257812 -5.753906 23.519531 -4.484375 22.53125 -3.359375 C 21.550781 -2.234375 20.316406 -1.335938 18.828125 -0.671875 C 17.335938 -0.00390625 15.609375 0.328125 13.640625 0.328125 Z M 13.640625 -4.4375 C 14.941406 -4.4375 16.0625 -4.691406 17 -5.203125 C 17.945312 -5.722656 18.695312 -6.40625 19.25 -7.25 C 19.8125 -8.09375 20.1875 -9.019531 20.375 -10.03125 C 20.570312 -11.039062 20.570312 -12.046875 20.375 -13.046875 C 20.1875 -14.054688 19.8125 -14.984375 19.25 -15.828125 C 18.695312 -16.679688 17.945312 -17.363281 17 -17.875 C 16.0625 -18.394531 14.941406 -18.65625 13.640625 -18.65625 C 12.328125 -18.65625 11.195312 -18.394531 10.25 -17.875 C 9.3125 -17.363281 8.5625 -16.679688 8 -15.828125 C 7.445312 -14.984375 7.070312 -14.054688 6.875 -13.046875 C 6.6875 -12.046875 6.6875 -11.039062 6.875 -10.03125 C 7.070312 -9.019531 7.445312 -8.09375 8 -7.25 C 8.5625 -6.40625 9.3125 -5.722656 10.25 -5.203125 C 11.195312 -4.691406 12.328125 -4.4375 13.640625 -4.4375 Z M 13.640625 -4.4375 "/></g></g><g style="fill:#000000;fill-opacity:1;"><g transform="translate(63.060682, 35.364741)"><path style="stroke:none" d="M 14.015625 0 L 9.390625 -8.78125 L 7.171875 -8.78125 L 7.171875 0 L 2.578125 0 L 2.578125 -22.984375 L 11.640625 -22.984375 C 13.015625 -22.984375 14.175781 -22.695312 15.125 -22.125 C 16.082031 -21.5625 16.828125 -20.820312 17.359375 -19.90625 C 17.898438 -19 18.234375 -18.015625 18.359375 -16.953125 C 18.484375 -15.898438 18.398438 -14.863281 18.109375 -13.84375 C 17.828125 -12.820312 17.335938 -11.921875 16.640625 -11.140625 C 15.941406 -10.359375 15.023438 -9.804688 13.890625 -9.484375 L 19.234375 0 Z M 7.171875 -13.25 L 11.21875 -13.25 C 11.84375 -13.25 12.34375 -13.421875 12.71875 -13.765625 C 13.09375 -14.109375 13.34375 -14.535156 13.46875 -15.046875 C 13.601562 -15.566406 13.601562 -16.082031 13.46875 -16.59375 C 13.34375 -17.101562 13.09375 -17.53125 12.71875 -17.875 C 12.34375 -18.21875 11.84375 -18.390625 11.21875 -18.390625 L 7.171875 -18.390625 Z M 7.171875 -13.25 "/></g></g><g style="fill:#000000;fill-opacity:1;"><g transform="translate(82.776035, 35.364741)"><path style="stroke:none" d="M 19.03125 -1.1875 C 18.238281 -0.78125 17.375 -0.46875 16.4375 -0.25 C 15.507812 -0.0390625 14.476562 0.0625 13.34375 0.0625 C 11.414062 0.0625 9.726562 -0.257812 8.28125 -0.90625 C 6.832031 -1.5625 5.625 -2.441406 4.65625 -3.546875 C 3.695312 -4.648438 2.972656 -5.890625 2.484375 -7.265625 C 2.003906 -8.640625 1.765625 -10.0625 1.765625 -11.53125 C 1.765625 -13 2.003906 -14.414062 2.484375 -15.78125 C 2.972656 -17.15625 3.695312 -18.394531 4.65625 -19.5 C 5.625 -20.601562 6.832031 -21.484375 8.28125 -22.140625 C 9.726562 -22.796875 11.414062 -23.125 13.34375 -23.125 C 15.25 -23.125 16.925781 -22.800781 18.375 -22.15625 C 19.820312 -21.507812 21.023438 -20.640625 21.984375 -19.546875 C 22.953125 -18.453125 23.679688 -17.226562 24.171875 -15.875 C 24.671875 -14.53125 24.929688 -13.128906 24.953125 -11.671875 C 24.972656 -10.210938 24.753906 -8.796875 24.296875 -7.421875 C 23.835938 -6.054688 23.144531 -4.828125 22.21875 -3.734375 L 25.25 0.125 L 20.15625 0.125 Z M 12.09375 -9.75 L 17.53125 -9.75 L 19.140625 -7.6875 C 19.609375 -8.5 19.90625 -9.390625 20.03125 -10.359375 C 20.15625 -11.335938 20.109375 -12.296875 19.890625 -13.234375 C 19.679688 -14.179688 19.296875 -15.050781 18.734375 -15.84375 C 18.179688 -16.644531 17.453125 -17.28125 16.546875 -17.75 C 15.648438 -18.21875 14.582031 -18.453125 13.34375 -18.453125 C 12.0625 -18.453125 10.960938 -18.203125 10.046875 -17.703125 C 9.140625 -17.203125 8.410156 -16.535156 7.859375 -15.703125 C 7.316406 -14.878906 6.945312 -13.972656 6.75 -12.984375 C 6.5625 -12.003906 6.5625 -11.019531 6.75 -10.03125 C 6.945312 -9.039062 7.316406 -8.132812 7.859375 -7.3125 C 8.410156 -6.488281 9.140625 -5.820312 10.046875 -5.3125 C 10.960938 -4.8125 12.0625 -4.5625 13.34375 -4.5625 C 14.3125 -4.5625 15.179688 -4.710938 15.953125 -5.015625 Z M 12.09375 -9.75 "/></g></g><g style="fill:#000000;fill-opacity:1;"><g transform="translate(109.760023, 35.364741)"><path style="stroke:none" d="M 19.0625 -8 C 19.0625 -6.4375 18.757812 -5.097656 18.15625 -3.984375 C 17.5625 -2.867188 16.769531 -1.976562 15.78125 -1.3125 C 14.800781 -0.65625 13.71875 -0.210938 12.53125 0.015625 C 11.351562 0.242188 10.171875 0.242188 8.984375 0.015625 C 7.796875 -0.210938 6.707031 -0.65625 5.71875 -1.3125 C 4.738281 -1.976562 3.945312 -2.867188 3.34375 -3.984375 C 2.738281 -5.097656 2.4375 -6.4375 2.4375 -8 L 2.4375 -22.984375 L 7.046875 -22.984375 L 7.046875 -8.03125 C 7.046875 -7.070312 7.296875 -6.300781 7.796875 -5.71875 C 8.296875 -5.144531 8.914062 -4.757812 9.65625 -4.5625 C 10.394531 -4.375 11.132812 -4.375 11.875 -4.5625 C 12.613281 -4.757812 13.234375 -5.144531 13.734375 -5.71875 C 14.242188 -6.300781 14.5 -7.070312 14.5 -8.03125 L 14.5 -22.984375 L 19.0625 -22.984375 Z M 19.0625 -8 "/></g></g><g style="fill:#000000;fill-opacity:1;"><g transform="translate(131.340774, 35.364741)"><path style="stroke:none" d="M 14.46875 0 L 2.578125 0 L 2.578125 -22.984375 L 14.078125 -22.984375 L 14.078125 -18.390625 L 7.171875 -18.390625 L 7.171875 -13.796875 L 13.21875 -13.796875 L 13.21875 -9.203125 L 7.171875 -9.203125 L 7.171875 -4.59375 L 14.46875 -4.59375 Z M 14.46875 0 "/></g></g><g style="fill:#000000;fill-opacity:1;"><g transform="translate(147.550467, 35.364741)"><path style="stroke:none" d="M 2.578125 -22.984375 L 7.171875 -22.984375 L 7.171875 -4.59375 L 14.46875 -4.59375 L 14.46875 0 L 2.578125 0 Z M 2.578125 -22.984375 "/></g></g><g style="fill:#000000;fill-opacity:1;"><g transform="translate(160.897589, 35.364741)"><path style="stroke:none" d="M 8.203125 0 L 8.203125 -10.359375 L 0.1875 -22.984375 L 5.78125 -22.984375 L 10.484375 -15.078125 L 15.171875 -22.984375 L 20.8125 -22.984375 L 12.765625 -10.359375 L 12.765625 0 Z M 8.203125 0 "/></g></g><g mask="url(#476c783222)" transform="matrix(1,0,0,1,1,21)"><g clip-path="url(#57b9d200da)"><g clip-rule="nonzero" clip-path="url(#5c4ea393ce)"><path style=" stroke:none;fill-rule:nonzero;fill:#3b82f6;fill-opacity:1;" d="M 36.671875 0.289062 L 27.828125 8.640625 L 6.855469 8.082031 C 6.847656 8.082031 6.847656 8.066406 6.855469 8.066406 C 6.855469 8.066406 13.03125 7.902344 18.933594 7.742188 C 11.949219 7.578125 1.371094 7.332031 1.378906 7.316406 C 1.378906 7.308594 1.378906 7.308594 1.386719 7.308594 L 14.730469 6.992188 L 8.136719 6.828125 C 8.128906 6.828125 8.128906 6.808594 8.136719 6.808594 C 8.136719 6.808594 17.128906 6.59375 23.816406 6.425781 C 15.523438 6.261719 3.089844 6.015625 3.089844 6 C 3.089844 5.992188 3.089844 5.992188 3.097656 5.992188 L 21.113281 5.632812 L 0.59375 5.308594 C 0.585938 5.308594 0.585938 5.292969 0.59375 5.292969 C 0.59375 5.292969 11.992188 5.109375 22.308594 4.953125 C 15.027344 4.789062 6.996094 4.613281 6.996094 4.613281 C 6.988281 4.613281 6.988281 4.59375 6.996094 4.59375 C 6.996094 4.59375 13.273438 4.457031 19.554688 4.316406 C 12.96875 4.167969 5.609375 3.992188 5.609375 3.984375 C 5.609375 3.976562 5.609375 3.976562 5.617188 3.976562 L 20.304688 3.636719 C 15.339844 3.503906 10.589844 3.375 10.589844 3.367188 C 10.589844 3.355469 10.589844 3.355469 10.597656 3.355469 C 10.597656 3.355469 17.617188 3.164062 23.722656 3 C 17.941406 2.878906 12.035156 2.746094 12.035156 2.746094 C 12.027344 2.746094 12.027344 2.730469 12.035156 2.730469 C 12.035156 2.730469 18.0625 2.597656 24.007812 2.46875 C 18.566406 2.3125 12.078125 2.128906 12.078125 2.109375 C 12.070312 2.09375 19.492188 1.882812 25.117188 1.71875 C 20.078125 1.59375 15.644531 1.492188 15.644531 1.480469 C 15.644531 1.472656 15.644531 1.472656 15.65625 1.472656 C 15.65625 1.472656 21.078125 1.34375 26.40625 1.21875 C 18.296875 1.054688 9.042969 0.871094 9.042969 0.871094 C 9.035156 0.871094 9.035156 0.855469 9.042969 0.855469 Z M 36.671875 0.289062 "/></g></g><mask id="476c783222"><g filter="url(#97fbb7b179)"><rect x="0" width="184.5" y="0" height="49.499998" style="fill:#000000;fill-opacity:0.82;stroke:none;"/></g></mask></g></g></svg>