<svg xmlns="http://www.w3.org/2000/svg" xmlns:xlink="http://www.w3.org/1999/xlink" width="1080" zoomAndPan="magnify" viewBox="0 0 810 809.999993" height="1080" preserveAspectRatio="xMidYMid meet" version="1.2"><defs><filter x="0%" y="0%" width="100%" filterUnits="objectBoundingBox" id="38c95345bf" height="100%"><feColorMatrix values="0 0 0 0 1 0 0 0 0 1 0 0 0 0 1 0 0 0 1 0" type="matrix" in="SourceGraphic"/></filter><clipPath id="31d7314bc2"><path d="M 0 1 L 809.929688 1 L 809.929688 253.839844 L 0 253.839844 Z M 0 1 "/></clipPath><clipPath id="92924276b8"><rect x="0" width="810" y="0" height="254"/></clipPath></defs><g id="5b06702145"><g style="fill:#000000;fill-opacity:1;"><g transform="translate(118.121035, 775.02812)"><path style="stroke:none" d="M 357.671875 8.523438 L 199.15625 8.523438 L 199.15625 -599.964844 L 207.679688 -599.964844 L 207.679688 -591.441406 L 12.457031 -591.441406 L 12.457031 -757.429688 L 552.898438 -757.429688 L 552.898438 -591.441406 L 357.671875 -591.441406 L 357.671875 -599.964844 L 366.195312 -599.964844 L 366.195312 8.523438 Z M 357.671875 -8.523438 L 357.671875 0 L 349.148438 0 L 349.148438 -608.488281 L 544.375 -608.488281 L 544.375 -599.964844 L 535.851562 -599.964844 L 535.851562 -748.90625 L 544.375 -748.90625 L 544.375 -740.386719 L 20.976562 -740.386719 L 20.976562 -748.90625 L 29.5 -748.90625 L 29.5 -599.964844 L 20.976562 -599.964844 L 20.976562 -608.488281 L 216.203125 -608.488281 L 216.203125 0 L 207.679688 0 L 207.679688 -8.523438 Z M 357.671875 -8.523438 "/></g></g><g style="fill:#ffffff;fill-opacity:1;"><g transform="translate(118.121035, 775.02812)"><path style="stroke:none" d="M 357.671875 0 L 207.6875 0 L 207.6875 -599.96875 L 20.984375 -599.96875 L 20.984375 -748.90625 L 544.375 -748.90625 L 544.375 -599.96875 L 357.671875 -599.96875 Z M 357.671875 0 "/></g></g><g mask="url(#0d8ba1052e)" transform="matrix(1,0,0,1,0,308)"><g clip-path="url(#92924276b8)"><g clip-rule="nonzero" clip-path="url(#31d7314bc2)"><path style=" stroke:none;fill-rule:nonzero;fill:#3b82f6;fill-opacity:1;" d="M 809.789062 1.011719 L 542.601562 253.445312 L -91.113281 236.582031 C -91.375 236.582031 -91.375 236.054688 -91.113281 236.054688 C -91.113281 236.054688 95.445312 231.046875 273.832031 226.304688 C 62.769531 221.296875 -256.855469 213.917969 -256.589844 213.390625 C -256.589844 213.128906 -256.589844 213.128906 -256.328125 213.128906 L 146.824219 203.644531 L -52.378906 198.636719 C -52.644531 198.636719 -52.644531 198.109375 -52.378906 198.109375 C -52.378906 198.109375 219.289062 191.523438 421.390625 186.515625 C 170.804688 181.507812 -204.945312 174.132812 -204.945312 173.605469 C -204.945312 173.339844 -204.945312 173.339844 -204.679688 173.339844 L 339.707031 162.539062 L -280.304688 152.789062 C -280.570312 152.789062 -280.570312 152.261719 -280.304688 152.261719 C -280.304688 152.261719 64.085938 146.726562 375.804688 141.984375 C 155.785156 136.976562 -86.898438 131.707031 -86.898438 131.707031 C -87.160156 131.707031 -87.160156 131.179688 -86.898438 131.179688 C -86.898438 131.179688 102.820312 126.964844 292.539062 122.75 C 93.597656 118.269531 -128.792969 113 -128.792969 112.734375 C -128.792969 112.472656 -128.792969 112.472656 -128.53125 112.472656 L 315.203125 102.195312 C 165.269531 98.242188 21.664062 94.292969 21.664062 94.027344 C 21.664062 93.765625 21.664062 93.765625 21.925781 93.765625 C 21.925781 93.765625 234.042969 87.96875 418.492188 82.960938 C 243.792969 79.273438 65.40625 75.320312 65.40625 75.320312 C 65.140625 75.320312 65.140625 74.792969 65.40625 74.792969 C 65.40625 74.792969 247.480469 70.839844 427.1875 66.886719 C 262.765625 62.144531 66.722656 56.609375 66.722656 56.082031 C 66.457031 55.558594 290.695312 49.234375 460.652344 44.226562 C 308.351562 40.539062 174.492188 37.375 174.492188 37.113281 C 174.492188 36.847656 174.492188 36.847656 174.757812 36.847656 C 174.757812 36.847656 338.652344 32.894531 499.652344 29.207031 C 254.597656 24.199219 -24.976562 18.667969 -24.976562 18.667969 C -25.238281 18.667969 -25.238281 18.140625 -24.976562 18.140625 Z M 809.789062 1.011719 "/></g></g><mask id="0d8ba1052e"><g filter="url(#38c95345bf)"><rect x="0" width="810" y="0" height="809.999993" style="fill:#000000;fill-opacity:0.82;stroke:none;"/></g></mask></g></g></svg>